<mxfile host="Electron" agent="Mozilla/5.0 (Windows NT 10.0; Win64; x64) AppleWebKit/537.36 (KHTML, like Gecko) draw.io/27.0.9 Chrome/134.0.6998.205 Electron/35.4.0 Safari/537.36" version="27.0.9">
  <diagram id="C5RBs43oDa-KdzZeNtuy" name="Page-1">
    <mxGraphModel dx="767" dy="909" grid="1" gridSize="10" guides="1" tooltips="1" connect="1" arrows="1" fold="1" page="1" pageScale="1" pageWidth="827" pageHeight="1169" math="0" shadow="0">
      <root>
        <mxCell id="WIyWlLk6GJQsqaUBKTNV-0" />
        <mxCell id="WIyWlLk6GJQsqaUBKTNV-1" parent="WIyWlLk6GJQsqaUBKTNV-0" />
        <mxCell id="9pHwAN6oTSKqDskCy6aI-0" value="" style="rounded=0;whiteSpace=wrap;html=1;fillColor=#f5f5f5;fontColor=#333333;strokeColor=#666666;" vertex="1" parent="WIyWlLk6GJQsqaUBKTNV-1">
          <mxGeometry x="40" y="20" width="400" height="70" as="geometry" />
        </mxCell>
        <mxCell id="9pHwAN6oTSKqDskCy6aI-21" style="edgeStyle=orthogonalEdgeStyle;curved=1;rounded=0;orthogonalLoop=1;jettySize=auto;html=1;exitX=0.5;exitY=1;exitDx=0;exitDy=0;entryX=0;entryY=0.25;entryDx=0;entryDy=0;" edge="1" parent="WIyWlLk6GJQsqaUBKTNV-1" source="9pHwAN6oTSKqDskCy6aI-1" target="9pHwAN6oTSKqDskCy6aI-12">
          <mxGeometry relative="1" as="geometry" />
        </mxCell>
        <mxCell id="9pHwAN6oTSKqDskCy6aI-1" value="Command Line Interface" style="rounded=1;whiteSpace=wrap;html=1;" vertex="1" parent="WIyWlLk6GJQsqaUBKTNV-1">
          <mxGeometry x="50" y="50" width="120" height="30" as="geometry" />
        </mxCell>
        <mxCell id="9pHwAN6oTSKqDskCy6aI-2" value="User Applications" style="text;html=1;align=center;verticalAlign=middle;resizable=0;points=[];autosize=1;strokeColor=none;fillColor=none;" vertex="1" parent="WIyWlLk6GJQsqaUBKTNV-1">
          <mxGeometry x="160" y="20" width="120" height="30" as="geometry" />
        </mxCell>
        <mxCell id="9pHwAN6oTSKqDskCy6aI-22" style="edgeStyle=orthogonalEdgeStyle;curved=1;rounded=0;orthogonalLoop=1;jettySize=auto;html=1;exitX=0.5;exitY=1;exitDx=0;exitDy=0;entryX=0.5;entryY=0;entryDx=0;entryDy=0;" edge="1" parent="WIyWlLk6GJQsqaUBKTNV-1" source="9pHwAN6oTSKqDskCy6aI-3" target="9pHwAN6oTSKqDskCy6aI-12">
          <mxGeometry relative="1" as="geometry" />
        </mxCell>
        <mxCell id="9pHwAN6oTSKqDskCy6aI-3" value="HTTP API Clients" style="rounded=1;whiteSpace=wrap;html=1;" vertex="1" parent="WIyWlLk6GJQsqaUBKTNV-1">
          <mxGeometry x="180" y="50" width="120" height="30" as="geometry" />
        </mxCell>
        <mxCell id="9pHwAN6oTSKqDskCy6aI-25" style="edgeStyle=orthogonalEdgeStyle;curved=1;rounded=0;orthogonalLoop=1;jettySize=auto;html=1;exitX=0.5;exitY=1;exitDx=0;exitDy=0;entryX=0.5;entryY=0;entryDx=0;entryDy=0;" edge="1" parent="WIyWlLk6GJQsqaUBKTNV-1" source="9pHwAN6oTSKqDskCy6aI-4" target="9pHwAN6oTSKqDskCy6aI-5">
          <mxGeometry relative="1" as="geometry" />
        </mxCell>
        <mxCell id="9pHwAN6oTSKqDskCy6aI-4" value="Python Applications&lt;div&gt;using sglang.function&lt;/div&gt;" style="rounded=1;whiteSpace=wrap;html=1;" vertex="1" parent="WIyWlLk6GJQsqaUBKTNV-1">
          <mxGeometry x="310" y="50" width="120" height="30" as="geometry" />
        </mxCell>
        <mxCell id="9pHwAN6oTSKqDskCy6aI-5" value="" style="rounded=0;whiteSpace=wrap;html=1;fillColor=#E6E6E6;" vertex="1" parent="WIyWlLk6GJQsqaUBKTNV-1">
          <mxGeometry x="300" y="120" width="140" height="180" as="geometry" />
        </mxCell>
        <mxCell id="9pHwAN6oTSKqDskCy6aI-26" style="edgeStyle=orthogonalEdgeStyle;curved=1;rounded=0;orthogonalLoop=1;jettySize=auto;html=1;exitX=0.5;exitY=1;exitDx=0;exitDy=0;entryX=0.5;entryY=0;entryDx=0;entryDy=0;" edge="1" parent="WIyWlLk6GJQsqaUBKTNV-1" source="9pHwAN6oTSKqDskCy6aI-6" target="9pHwAN6oTSKqDskCy6aI-7">
          <mxGeometry relative="1" as="geometry" />
        </mxCell>
        <mxCell id="9pHwAN6oTSKqDskCy6aI-6" value="@sgl.function. decorators" style="rounded=1;whiteSpace=wrap;html=1;" vertex="1" parent="WIyWlLk6GJQsqaUBKTNV-1">
          <mxGeometry x="310" y="130" width="120" height="30" as="geometry" />
        </mxCell>
        <mxCell id="9pHwAN6oTSKqDskCy6aI-27" style="edgeStyle=orthogonalEdgeStyle;curved=1;rounded=0;orthogonalLoop=1;jettySize=auto;html=1;exitX=0.5;exitY=1;exitDx=0;exitDy=0;entryX=0.5;entryY=0;entryDx=0;entryDy=0;" edge="1" parent="WIyWlLk6GJQsqaUBKTNV-1" source="9pHwAN6oTSKqDskCy6aI-7" target="9pHwAN6oTSKqDskCy6aI-9">
          <mxGeometry relative="1" as="geometry" />
        </mxCell>
        <mxCell id="9pHwAN6oTSKqDskCy6aI-7" value="StreamExecutor&lt;div&gt;Program Interpreter&lt;/div&gt;" style="rounded=1;whiteSpace=wrap;html=1;" vertex="1" parent="WIyWlLk6GJQsqaUBKTNV-1">
          <mxGeometry x="310" y="185" width="120" height="30" as="geometry" />
        </mxCell>
        <mxCell id="9pHwAN6oTSKqDskCy6aI-23" style="edgeStyle=orthogonalEdgeStyle;curved=1;rounded=0;orthogonalLoop=1;jettySize=auto;html=1;exitX=0.5;exitY=1;exitDx=0;exitDy=0;entryX=1;entryY=0.25;entryDx=0;entryDy=0;" edge="1" parent="WIyWlLk6GJQsqaUBKTNV-1" source="9pHwAN6oTSKqDskCy6aI-9" target="9pHwAN6oTSKqDskCy6aI-12">
          <mxGeometry relative="1" as="geometry" />
        </mxCell>
        <mxCell id="9pHwAN6oTSKqDskCy6aI-9" value="RuntimeEndpoint&lt;div&gt;Backend Communication&lt;/div&gt;" style="rounded=1;whiteSpace=wrap;html=1;" vertex="1" parent="WIyWlLk6GJQsqaUBKTNV-1">
          <mxGeometry x="310" y="240" width="120" height="50" as="geometry" />
        </mxCell>
        <mxCell id="9pHwAN6oTSKqDskCy6aI-11" value="" style="rounded=0;whiteSpace=wrap;html=1;fillColor=none;dashed=1;strokeWidth=2;strokeColor=#9933FF;" vertex="1" parent="WIyWlLk6GJQsqaUBKTNV-1">
          <mxGeometry x="72" y="329" width="240" height="281" as="geometry" />
        </mxCell>
        <mxCell id="9pHwAN6oTSKqDskCy6aI-28" style="edgeStyle=orthogonalEdgeStyle;curved=1;rounded=0;orthogonalLoop=1;jettySize=auto;html=1;exitX=0.5;exitY=1;exitDx=0;exitDy=0;entryX=0.5;entryY=0;entryDx=0;entryDy=0;" edge="1" parent="WIyWlLk6GJQsqaUBKTNV-1" source="9pHwAN6oTSKqDskCy6aI-12" target="9pHwAN6oTSKqDskCy6aI-14">
          <mxGeometry relative="1" as="geometry" />
        </mxCell>
        <mxCell id="9pHwAN6oTSKqDskCy6aI-12" value="FastAPI server&lt;div&gt;HTTP endpoints&lt;/div&gt;" style="rounded=1;whiteSpace=wrap;html=1;" vertex="1" parent="WIyWlLk6GJQsqaUBKTNV-1">
          <mxGeometry x="135" y="354" width="120" height="30" as="geometry" />
        </mxCell>
        <mxCell id="9pHwAN6oTSKqDskCy6aI-13" value="Sglang Frontend" style="text;html=1;align=center;verticalAlign=middle;resizable=0;points=[];autosize=1;strokeColor=none;fillColor=none;" vertex="1" parent="WIyWlLk6GJQsqaUBKTNV-1">
          <mxGeometry x="380" y="104" width="110" height="30" as="geometry" />
        </mxCell>
        <mxCell id="9pHwAN6oTSKqDskCy6aI-29" style="edgeStyle=orthogonalEdgeStyle;curved=1;rounded=0;orthogonalLoop=1;jettySize=auto;html=1;exitX=0.5;exitY=1;exitDx=0;exitDy=0;entryX=0.5;entryY=0;entryDx=0;entryDy=0;" edge="1" parent="WIyWlLk6GJQsqaUBKTNV-1" source="9pHwAN6oTSKqDskCy6aI-14" target="9pHwAN6oTSKqDskCy6aI-15">
          <mxGeometry relative="1" as="geometry">
            <Array as="points">
              <mxPoint x="195" y="450" />
              <mxPoint x="240" y="450" />
            </Array>
          </mxGeometry>
        </mxCell>
        <mxCell id="9pHwAN6oTSKqDskCy6aI-14" value="TokenizerManager&lt;div&gt;Text tokenization&lt;/div&gt;" style="rounded=1;whiteSpace=wrap;html=1;" vertex="1" parent="WIyWlLk6GJQsqaUBKTNV-1">
          <mxGeometry x="135" y="410" width="120" height="30" as="geometry" />
        </mxCell>
        <mxCell id="9pHwAN6oTSKqDskCy6aI-30" style="edgeStyle=orthogonalEdgeStyle;curved=1;rounded=0;orthogonalLoop=1;jettySize=auto;html=1;exitX=0.5;exitY=1;exitDx=0;exitDy=0;entryX=0.5;entryY=0;entryDx=0;entryDy=0;" edge="1" parent="WIyWlLk6GJQsqaUBKTNV-1" source="9pHwAN6oTSKqDskCy6aI-15" target="9pHwAN6oTSKqDskCy6aI-16">
          <mxGeometry relative="1" as="geometry" />
        </mxCell>
        <mxCell id="9pHwAN6oTSKqDskCy6aI-15" value="Scheduler&lt;div&gt;request scheduling&lt;/div&gt;" style="rounded=1;whiteSpace=wrap;html=1;" vertex="1" parent="WIyWlLk6GJQsqaUBKTNV-1">
          <mxGeometry x="180" y="464" width="120" height="30" as="geometry" />
        </mxCell>
        <mxCell id="9pHwAN6oTSKqDskCy6aI-31" style="edgeStyle=orthogonalEdgeStyle;curved=1;rounded=0;orthogonalLoop=1;jettySize=auto;html=1;exitX=0.25;exitY=1;exitDx=0;exitDy=0;entryX=1;entryY=0.25;entryDx=0;entryDy=0;" edge="1" parent="WIyWlLk6GJQsqaUBKTNV-1" source="9pHwAN6oTSKqDskCy6aI-16" target="9pHwAN6oTSKqDskCy6aI-17">
          <mxGeometry relative="1" as="geometry">
            <Array as="points">
              <mxPoint x="210" y="575" />
            </Array>
          </mxGeometry>
        </mxCell>
        <mxCell id="9pHwAN6oTSKqDskCy6aI-16" value="ModelRunner&lt;div&gt;GPU model execution&lt;/div&gt;" style="rounded=1;whiteSpace=wrap;html=1;" vertex="1" parent="WIyWlLk6GJQsqaUBKTNV-1">
          <mxGeometry x="180" y="514" width="120" height="30" as="geometry" />
        </mxCell>
        <mxCell id="9pHwAN6oTSKqDskCy6aI-32" style="edgeStyle=orthogonalEdgeStyle;curved=1;rounded=0;orthogonalLoop=1;jettySize=auto;html=1;exitX=0.5;exitY=0;exitDx=0;exitDy=0;entryX=0.25;entryY=1;entryDx=0;entryDy=0;" edge="1" parent="WIyWlLk6GJQsqaUBKTNV-1" source="9pHwAN6oTSKqDskCy6aI-17" target="9pHwAN6oTSKqDskCy6aI-14">
          <mxGeometry relative="1" as="geometry" />
        </mxCell>
        <mxCell id="9pHwAN6oTSKqDskCy6aI-17" value="DetokenizerManager&lt;div&gt;output detokenizer&lt;/div&gt;" style="rounded=1;whiteSpace=wrap;html=1;" vertex="1" parent="WIyWlLk6GJQsqaUBKTNV-1">
          <mxGeometry x="76" y="567.5" width="120" height="30" as="geometry" />
        </mxCell>
        <mxCell id="9pHwAN6oTSKqDskCy6aI-18" value="Sglang Runtime(SRT)" style="text;html=1;align=center;verticalAlign=middle;resizable=0;points=[];autosize=1;strokeColor=none;fillColor=none;" vertex="1" parent="WIyWlLk6GJQsqaUBKTNV-1">
          <mxGeometry x="45" y="329" width="140" height="30" as="geometry" />
        </mxCell>
        <mxCell id="9pHwAN6oTSKqDskCy6aI-33" value="" style="shape=flexArrow;endArrow=classic;html=1;rounded=0;curved=1;strokeColor=#66B2FF;fillColor=#00CCCC;" edge="1" parent="WIyWlLk6GJQsqaUBKTNV-1">
          <mxGeometry width="50" height="50" relative="1" as="geometry">
            <mxPoint x="306" y="543" as="sourcePoint" />
            <mxPoint x="339" y="559" as="targetPoint" />
          </mxGeometry>
        </mxCell>
        <mxCell id="9pHwAN6oTSKqDskCy6aI-34" value="" style="rounded=0;whiteSpace=wrap;html=1;fillColor=#B3B3B3;" vertex="1" parent="WIyWlLk6GJQsqaUBKTNV-1">
          <mxGeometry x="350" y="530" width="420" height="80" as="geometry" />
        </mxCell>
        <mxCell id="9pHwAN6oTSKqDskCy6aI-35" value="Model Implementations&lt;div&gt;(eg. LlamaForCausalLM)&lt;/div&gt;" style="rounded=1;whiteSpace=wrap;html=1;" vertex="1" parent="WIyWlLk6GJQsqaUBKTNV-1">
          <mxGeometry x="360" y="553" width="140" height="40" as="geometry" />
        </mxCell>
        <mxCell id="9pHwAN6oTSKqDskCy6aI-36" value="Memory Management&lt;div&gt;RadixCache, ReqToTokenPool&lt;/div&gt;&lt;div&gt;TokenToKVPool&lt;/div&gt;" style="rounded=1;whiteSpace=wrap;html=1;" vertex="1" parent="WIyWlLk6GJQsqaUBKTNV-1">
          <mxGeometry x="510" y="540" width="130" height="60" as="geometry" />
        </mxCell>
        <mxCell id="9pHwAN6oTSKqDskCy6aI-37" value="Attention Backends&lt;div&gt;FlashInfer, Triton&lt;/div&gt;" style="rounded=1;whiteSpace=wrap;html=1;" vertex="1" parent="WIyWlLk6GJQsqaUBKTNV-1">
          <mxGeometry x="650" y="540" width="110" height="60" as="geometry" />
        </mxCell>
        <mxCell id="9pHwAN6oTSKqDskCy6aI-38" value="Model &amp;amp; Memory&amp;nbsp;" style="text;html=1;align=center;verticalAlign=middle;resizable=0;points=[];autosize=1;strokeColor=none;fillColor=none;" vertex="1" parent="WIyWlLk6GJQsqaUBKTNV-1">
          <mxGeometry x="370" y="523" width="120" height="30" as="geometry" />
        </mxCell>
        <mxCell id="9pHwAN6oTSKqDskCy6aI-40" value="&lt;b&gt;&lt;font style=&quot;font-size: 14px;&quot;&gt;Overview of SGlang&lt;/font&gt;&lt;/b&gt;" style="text;html=1;align=center;verticalAlign=middle;resizable=0;points=[];autosize=1;strokeColor=none;fillColor=none;" vertex="1" parent="WIyWlLk6GJQsqaUBKTNV-1">
          <mxGeometry x="530" y="30" width="160" height="30" as="geometry" />
        </mxCell>
        <mxCell id="9pHwAN6oTSKqDskCy6aI-42" value="" style="rounded=0;whiteSpace=wrap;html=1;fillColor=#dae8fc;strokeColor=#6c8ebf;" vertex="1" parent="WIyWlLk6GJQsqaUBKTNV-1">
          <mxGeometry x="350" y="414" width="360" height="80" as="geometry" />
        </mxCell>
        <mxCell id="9pHwAN6oTSKqDskCy6aI-43" value="RadixCache&lt;div&gt;Prefix Caching&lt;/div&gt;" style="rounded=1;whiteSpace=wrap;html=1;" vertex="1" parent="WIyWlLk6GJQsqaUBKTNV-1">
          <mxGeometry x="360" y="437" width="100" height="40" as="geometry" />
        </mxCell>
        <mxCell id="9pHwAN6oTSKqDskCy6aI-44" value="ScheduleBatch&lt;div&gt;Batch management&lt;/div&gt;" style="rounded=1;whiteSpace=wrap;html=1;" vertex="1" parent="WIyWlLk6GJQsqaUBKTNV-1">
          <mxGeometry x="470" y="424" width="110" height="60" as="geometry" />
        </mxCell>
        <mxCell id="9pHwAN6oTSKqDskCy6aI-45" value="SchedulePolicy&lt;div&gt;fcfs/lpm/random&lt;/div&gt;" style="rounded=1;whiteSpace=wrap;html=1;" vertex="1" parent="WIyWlLk6GJQsqaUBKTNV-1">
          <mxGeometry x="590" y="424" width="110" height="60" as="geometry" />
        </mxCell>
        <mxCell id="9pHwAN6oTSKqDskCy6aI-46" value="Scheduler" style="text;html=1;align=center;verticalAlign=middle;resizable=0;points=[];autosize=1;strokeColor=none;fillColor=none;" vertex="1" parent="WIyWlLk6GJQsqaUBKTNV-1">
          <mxGeometry x="390" y="407" width="80" height="30" as="geometry" />
        </mxCell>
        <mxCell id="9pHwAN6oTSKqDskCy6aI-47" value="" style="shape=flexArrow;endArrow=classic;html=1;rounded=0;curved=1;strokeColor=#66B2FF;fillColor=#00CCCC;" edge="1" parent="WIyWlLk6GJQsqaUBKTNV-1">
          <mxGeometry width="50" height="50" relative="1" as="geometry">
            <mxPoint x="306" y="479" as="sourcePoint" />
            <mxPoint x="340" y="460" as="targetPoint" />
          </mxGeometry>
        </mxCell>
        <mxCell id="9pHwAN6oTSKqDskCy6aI-48" value="ZMQ pull/push sockets&lt;div&gt;Inter-process messaging&lt;/div&gt;" style="text;html=1;align=center;verticalAlign=middle;resizable=0;points=[];autosize=1;strokeColor=#b85450;fillColor=#f8cecc;" vertex="1" parent="WIyWlLk6GJQsqaUBKTNV-1">
          <mxGeometry x="350" y="354" width="150" height="40" as="geometry" />
        </mxCell>
        <mxCell id="9pHwAN6oTSKqDskCy6aI-49" value="" style="shape=flexArrow;endArrow=classic;html=1;rounded=0;strokeColor=#66B2FF;fillColor=#CCFFFF;" edge="1" parent="WIyWlLk6GJQsqaUBKTNV-1">
          <mxGeometry width="50" height="50" relative="1" as="geometry">
            <mxPoint x="340" y="374" as="sourcePoint" />
            <mxPoint x="200" y="400" as="targetPoint" />
          </mxGeometry>
        </mxCell>
      </root>
    </mxGraphModel>
  </diagram>
</mxfile>
